<svg width="30" height="30" viewBox="0 0 30 30" fill="none" xmlns="http://www.w3.org/2000/svg">
<g id="app store" clip-path="url(#clip0_25_29)">
<path id="Vector" fill-rule="evenodd" clip-rule="evenodd" d="M30 6.50001V23.5C30.0017 24.3541 29.8348 25.2001 29.5087 25.9895C29.1827 26.7789 28.7039 27.4961 28.1 28.1C27.4961 28.7039 26.7789 29.1827 25.9895 29.5087C25.2001 29.8348 24.3541 30.0017 23.5 30H6.50001C5.64594 30.0017 4.79994 29.8348 4.01055 29.5087C3.22117 29.1827 2.50393 28.7039 1.90001 28.1C1.29609 27.4961 0.817372 26.7789 0.491321 25.9895C0.165269 25.2001 -0.0016934 24.3541 1.2948e-05 23.5V6.50001C-0.0016934 5.64594 0.165269 4.79994 0.491321 4.01055C0.817372 3.22117 1.29609 2.50393 1.90001 1.90001C2.50393 1.29609 3.22117 0.817372 4.01055 0.491321C4.79994 0.165269 5.64594 -0.0016934 6.50001 1.2948e-05H23.5C24.3541 -0.0016934 25.2001 0.165269 25.9895 0.491321C26.7789 0.817372 27.4961 1.29609 28.1 1.90001C28.7039 2.50393 29.1827 3.22117 29.5087 4.01055C29.8348 4.79994 30.0017 5.64594 30 6.50001Z" fill="url(#paint0_linear_25_29)"/>
<path id="Vector_2" fill-rule="evenodd" clip-rule="evenodd" d="M20.6499 17.25H24.3749C24.7396 17.25 25.0893 17.3949 25.3472 17.6527C25.605 17.9106 25.7499 18.2603 25.7499 18.625C25.7499 18.9897 25.605 19.3394 25.3472 19.5973C25.0893 19.8551 24.7396 20 24.3749 20H20.6499V17.25Z" fill="white"/>
<path id="Combined-Shape" fill-rule="evenodd" clip-rule="evenodd" d="M16.075 17.25C16.3348 17.2484 16.5923 17.2984 16.8326 17.3971C17.073 17.4959 17.2913 17.6413 17.475 17.825C17.6587 18.0087 17.8041 18.227 17.9028 18.4673C18.0015 18.7077 18.0516 18.9652 18.05 19.225C18.051 19.4906 18 19.7539 17.9 20H5.625C5.26033 20 4.91059 19.8551 4.65273 19.5972C4.39487 19.3394 4.25 18.9896 4.25 18.625C4.25 18.2603 4.39487 17.9106 4.65273 17.6527C4.91059 17.3948 5.26033 17.25 5.625 17.25H16.075ZM15.725 8.19998V10.6H14.125L12.175 7.24998C12.0893 7.10223 12.0337 6.93904 12.0111 6.76975C11.9886 6.60046 11.9997 6.42839 12.0437 6.26338C12.0877 6.09837 12.1639 5.94366 12.2677 5.8081C12.3716 5.67254 12.5012 5.55879 12.6491 5.47335C12.7969 5.38791 12.9602 5.33247 13.1295 5.31018C13.2988 5.2879 13.4709 5.29921 13.6358 5.34348C13.8008 5.38775 13.9554 5.4641 14.0908 5.56817C14.2262 5.67224 14.3398 5.80198 14.425 5.94998L15.725 8.19998ZM17.1 10.525L23.925 22.35C24.1073 22.6649 24.1571 23.0394 24.0633 23.391C23.9696 23.7427 23.7399 24.0426 23.425 24.225C23.1101 24.4073 22.7356 24.4571 22.3839 24.3633C22.0323 24.2695 21.7323 24.0399 21.55 23.725L17.425 16.55C17.05 15.85 16.775 15.3 16.6 15C16.1892 14.3 16.0159 13.4859 16.106 12.6793C16.1961 11.8728 16.5448 11.117 17.1 10.525Z" fill="white"/>
<g id="Group">
<path id="Combined-Shape_2" fill-rule="evenodd" clip-rule="evenodd" d="M11.5001 18.5H8.32509L15.5001 6.07504C15.6824 5.7601 15.9824 5.53048 16.334 5.43672C16.6857 5.34295 17.0601 5.3927 17.3751 5.57504C17.69 5.75738 17.9196 6.05736 18.0134 6.40899C18.1072 6.76062 18.0574 7.1351 17.8751 7.45004L11.5001 18.5ZM9.82509 21.375L8.50009 23.7C8.4098 23.856 8.28969 23.9926 8.1466 24.1021C8.00351 24.2117 7.84025 24.2919 7.66614 24.3384C7.49203 24.3848 7.31048 24.3965 7.13186 24.3727C6.95323 24.349 6.78103 24.2903 6.62509 24.2C6.46914 24.1098 6.33251 23.9896 6.22298 23.8466C6.11346 23.7035 6.03319 23.5402 5.98676 23.3661C5.94033 23.192 5.92865 23.0104 5.95238 22.8318C5.97612 22.6532 6.0348 22.481 6.12509 22.325L7.10009 20.625C7.40286 20.4744 7.73691 20.3973 8.07509 20.4C8.4278 20.3885 8.77702 20.4731 9.0853 20.6448C9.39359 20.8166 9.64932 21.069 9.82509 21.375Z" fill="white"/>
</g>
</g>
<defs>
<linearGradient id="paint0_linear_25_29" x1="14.9998" y1="30" x2="14.9998" y2="1.43051e-05" gradientUnits="userSpaceOnUse">
<stop stop-color="#1D6FF2"/>
<stop offset="1" stop-color="#1AC8FC"/>
</linearGradient>
<clipPath id="clip0_25_29">
<rect width="30" height="30" fill="white"/>
</clipPath>
</defs>
</svg>
