<svg width="30" height="30" viewBox="0 0 30 30" fill="none" xmlns="http://www.w3.org/2000/svg">
<g id="Playstore" clip-path="url(#clip0_25_24)">
<path id="Vector" d="M1.63092 29.8795L29.3771 16.0078C30.2076 15.5926 30.2076 14.4073 29.3771 13.9921L1.63092 0.120423C0.881584 -0.254206 0 0.290621 0 1.12824V28.8717C0 29.7093 0.881584 30.2542 1.63092 29.8795Z" fill="#F6B94C"/>
<path id="Vector_2" d="M0.376337 0.28772C0.149035 0.489551 0 0.784056 0 1.12824V28.8717C0 29.2159 0.149035 29.5104 0.376337 29.7122L15.0886 15L0.376337 0.28772Z" fill="#52C1FF"/>
<path id="Vector_3" d="M20.5229 9.56557L1.6308 0.120474C1.18934 -0.100219 0.702211 -0.0016052 0.376221 0.287776L15.0885 15L20.5229 9.56557Z" fill="#67C7A5"/>
<path id="Vector_4" d="M0.376221 29.7123C0.702211 30.0016 1.18934 30.1002 1.6308 29.8796L20.5229 20.4344L15.0885 15L0.376221 29.7123Z" fill="#F56C61"/>
</g>
<defs>
<clipPath id="clip0_25_24">
<rect width="30" height="30" fill="white"/>
</clipPath>
</defs>
</svg>
